<svg width="2500" height="1745" viewBox="0 0 2500 1745" fill="none" xmlns="http://www.w3.org/2000/svg">
<g clip-path="url(#clip0_375_8773)">
<path fill-rule="evenodd" clip-rule="evenodd" d="M2453.14 980.54L2392.56 968.18C2367.24 962.99 2348.18 941.62 2346.49 915.86C2343.1 866 2333.52 817.46 2318.34 771C2310.38 746.37 2319.97 719.43 2341.57 705.22L2393.09 671.02C2419.86 653.36 2427.29 617.34 2409.63 590.58L2344.28 491.79C2326.58 465.03 2290.51 457.72 2263.76 475.41L2212.16 509.51C2190.54 523.79 2162.01 522.1 2142.53 505.09C2105.73 472.91 2064.78 445.1 2020.24 422.5C1997.17 410.81 1985.04 384.98 1990.25 359.59L2002.55 299.01C2009.01 267.58 1988.67 236.94 1957.27 230.49L1841.2 206.83C1809.79 200.38 1779.14 220.69 1772.69 252.1L1760.33 312.68C1755.14 338 1733.84 357.09 1708.06 358.82C1658.23 362.16 1609.68 371.75 1563.25 386.88C1538.59 394.97 1511.68 385.28 1497.39 363.67L1463.28 312.08C1445.59 285.32 1409.56 277.95 1382.84 295.71L1284.01 360.99C1257.24 378.68 1249.95 414.73 1267.62 441.49L1301.72 493.08C1316 514.69 1314.32 543.26 1297.25 562.69C1265.15 599.52 1237.32 640.48 1214.65 684.98C1203.03 708.07 1177.15 720.19 1151.8 715.07L1091.23 702.69C1059.81 696.24 1029.16 716.55 1022.72 747.98L999.06 864.03C992.66 895.48 1012.93 926.12 1044.36 932.56L1104.91 944.91C1130.25 950.11 1149.26 971.38 1151.05 997.25C1154.33 1047.01 1163.97 1095.57 1179.11 1142C1187.22 1166.66 1177.53 1193.59 1155.97 1207.9L1104.32 1241.97C1077.55 1259.64 1070.24 1295.71 1087.93 1322.46L1153.17 1421.23C1170.9 1448.01 1206.97 1455.3 1233.74 1437.64L1285.26 1403.5C1306.94 1389.22 1335.44 1390.9 1354.95 1408C1391.76 1440.11 1432.69 1468 1477.18 1490.53C1500.25 1502.19 1512.49 1528.14 1507.3 1553.47L1494.95 1614.03C1488.49 1645.45 1508.77 1676.16 1540.23 1682.55L1656.28 1706.28C1687.63 1712.63 1718.35 1692.34 1724.82 1660.92L1737.12 1600.34C1742.29 1575.01 1763.63 1556.01 1789.5 1554.21C1839.25 1550.88 1887.8 1541.27 1934.23 1526.15C1958.84 1518.11 1985.76 1527.72 2000.06 1549.33L2034.14 1600.92C2051.87 1627.7 2087.92 1635.07 2114.69 1617.38L2213.47 1552.01C2240.24 1534.35 2247.62 1498.31 2229.88 1471.52L2195.75 1419.92C2181.48 1398.32 2183.15 1369.83 2200.17 1350.28C2232.41 1313.52 2260.22 1272.57 2282.77 1228.03C2294.51 1204.97 2320.27 1192.8 2345.63 1198L2406.29 1210.32C2437.69 1216.77 2468.41 1196.47 2474.8 1165.04L2498.45 1048.98C2504.9 1017.57 2484.6 986.89 2453.15 980.53M1543.42 758.37C1652.86 644.97 1833.5 641.76 1946.9 751.2C2060.3 860.64 2063.5 1041.28 1954.07 1154.67C1844.64 1268.07 1664 1271.28 1550.6 1161.84C1437.2 1052.41 1433.99 871.77 1543.42 758.37Z" fill="#D0E5FF"/>
<path fill-rule="evenodd" clip-rule="evenodd" d="M999.95 1404.14L962.6 1380.52C947 1370.64 939.67 1351.52 945.08 1333.88C955.46 1299.71 961.36 1264.84 963 1229.95C963.92 1211.47 977.16 1195.91 995.2 1191.89L1038.3 1182.1C1060.66 1177.09 1074.76 1154.9 1069.75 1132.54L1051.13 1049.96C1046.09 1027.59 1023.84 1013.56 1001.48 1018.6L958.36 1028.3C940.29 1032.36 921.66 1024 912.95 1007.69C896.52 976.86 876.2 947.89 852.18 921.5C839.72 907.84 838.17 887.5 848.09 871.86L871.67 834.5C883.95 815.14 878.13 789.5 858.78 777.23L787.22 732C767.87 719.72 742.24 725.52 729.96 744.88L706.34 782.22C696.45 797.82 677.38 805.18 659.71 799.8C625.56 789.4 590.69 783.5 555.83 781.83C537.3 780.98 521.77 767.69 517.7 749.63L507.99 706.51C502.96 684.15 480.75 670.08 458.39 675.18L375.8 693.74C353.43 698.77 339.42 721.01 344.44 743.38L354.15 786.5C358.21 804.56 349.84 823.22 333.51 831.88C302.72 848.35 273.74 868.67 247.31 892.65C233.7 905.14 213.32 906.67 197.69 896.82L160.36 873.19C141 860.91 115.37 866.71 103.1 886.08L57.8699 957.63C45.6199 977.02 51.3899 1002.63 70.7599 1014.91L108.09 1038.51C123.7 1048.41 131.02 1067.44 125.65 1085.18C115.22 1119.26 109.36 1154.16 107.7 1189.02C106.87 1207.55 93.5699 1223.09 75.5399 1227.19L32.3899 1236.86C10.0199 1241.88 -4.01009 1264.13 1.02991 1286.49L19.5899 1369.03C24.6499 1391.42 46.8999 1405.44 69.2599 1400.42L112.34 1390.67C130.45 1386.63 149.07 1394.97 157.77 1411.34C174.23 1442.13 194.51 1471.14 218.52 1497.48C230.98 1511.12 232.58 1531.57 222.69 1547.17L199.09 1584.51C186.81 1603.87 192.58 1629.53 211.97 1641.77L283.5 1687.05C302.84 1699.25 328.51 1693.48 340.8 1674.12L364.38 1636.75C374.26 1621.13 393.33 1613.85 411.08 1619.21C445.17 1629.6 480.05 1635.48 514.9 1637.15C533.38 1638.02 548.94 1651.26 553.01 1669.33L562.7 1712.44C567.76 1734.83 589.98 1748.89 612.35 1743.86L694.93 1725.22C717.29 1720.21 731.37 1698 726.3 1675.6L716.58 1632.47C712.52 1614.41 720.86 1595.8 737.19 1587.06C768.05 1570.68 797.02 1550.36 823.38 1526.32C837.07 1513.88 857.37 1512.28 873 1522.19L910.41 1545.8C929.76 1558.07 955.43 1552.29 967.66 1532.91L1012.89 1461.35C1025.17 1442 1019.37 1416.35 999.97 1404.13M448.4 1025.04C550.28 977.01 671.8 1020.67 719.82 1122.54C767.85 1224.41 724.19 1345.93 622.32 1393.96C520.45 1441.99 398.93 1398.34 350.9 1296.46C302.87 1194.59 346.52 1073.07 448.4 1025.04Z" fill="#D0E5FF"/>
<path fill-rule="evenodd" clip-rule="evenodd" d="M1119.77 432.89L1094.03 420.31C1083.28 415.04 1077.21 403.25 1079.44 391.5C1083.71 368.74 1085.05 345.86 1083.63 323.26C1082.92 311.29 1090.35 300.32 1101.69 296.46L1128.77 287.1C1142.83 282.29 1150.34 266.99 1145.53 252.94L1127.69 201.04C1122.86 186.98 1107.53 179.52 1093.48 184.35L1066.38 193.65C1055.02 197.54 1042.43 193.48 1035.66 183.58C1022.89 164.88 1007.75 147.65 990.4 132.34C981.41 124.42 978.97 111.42 984.25 100.64L996.8 74.8999C1003.34 61.5499 997.78 45.45 984.44 38.91L935.13 14.8299C921.79 8.28995 905.69 13.8399 899.15 27.1799L886.57 52.91C881.3 63.66 869.53 69.7499 857.77 67.5399C835.03 63.2499 812.14 61.92 789.56 63.31C777.56 64.08 766.61 56.6099 762.71 45.2599L753.4 18.1599C748.58 4.09995 733.27 -3.39005 719.23 1.47995L667.32 19.2799C653.26 24.1099 645.81 39.4299 650.63 53.4799L659.94 80.5799C663.84 91.9299 659.76 104.55 649.85 111.28C631.18 124.07 613.94 139.21 598.6 156.54C590.71 165.55 577.69 167.98 566.92 162.74L541.19 150.15C527.85 143.61 511.74 149.16 505.2 162.51L481.11 211.81C474.59 225.17 480.12 241.26 493.47 247.81L519.19 260.38C529.95 265.65 536.01 277.4 533.81 289.21C529.5 311.91 528.19 334.81 529.59 357.39C530.36 369.39 522.89 380.34 511.56 384.26L484.44 393.54C470.38 398.36 462.92 413.69 467.75 427.74L485.55 479.61C490.39 493.68 505.72 501.14 519.78 496.32L546.85 486.99C558.23 483.1 570.82 487.16 577.58 497.1C590.36 515.78 605.48 533.04 622.82 548.31C631.81 556.22 634.29 569.28 629.02 580.03L616.45 605.76C609.9 619.1 615.44 635.23 628.8 641.75L678.1 665.87C691.42 672.36 707.56 666.83 714.11 653.48L726.66 627.74C731.92 616.98 743.7 610.94 755.51 613.13C778.21 617.41 801.1 618.74 823.68 617.35C835.65 616.6 846.61 624.04 850.52 635.39L859.81 662.49C864.65 676.56 879.97 684.05 894.03 679.23L945.92 661.38C959.98 656.57 967.47 641.26 962.63 627.19L953.31 600.08C949.42 588.73 953.47 576.15 963.38 569.36C982.11 556.62 999.34 541.48 1014.62 524.12C1022.56 515.14 1035.53 512.67 1046.3 517.95L1072.08 530.52C1085.42 537.06 1101.55 531.52 1108.06 518.16L1132.14 468.85C1138.68 455.51 1133.13 439.4 1119.77 432.89ZM737.55 227.63C799.8 189.48 881.19 209.01 919.34 271.26C957.49 333.51 937.96 414.9 875.71 453.05C813.46 491.2 732.07 471.67 693.92 409.42C655.77 347.17 675.3 265.78 737.55 227.63Z" fill="#D0E5FF"/>
<path fill-rule="evenodd" clip-rule="evenodd" d="M233.13 885.53H410.3V654.94L233.13 885.53ZM385.56 1251.6V1073.12H27.3V886.83L452 342.28H594V885.53H708.64V1073.13H594V1251.61H385.56V1251.6Z" fill="#7BA9E3"/>
<path fill-rule="evenodd" clip-rule="evenodd" d="M1242.53 791.96C1242.53 710.72 1213.57 526.04 1112.38 526.14C1014.61 526.24 980.92 708.37 980.92 791.96C980.92 875.55 1001.82 1060.92 1112.38 1061.79C1216.28 1062.6 1242.53 874.73 1242.53 791.96ZM1452.08 791.96C1452.08 858.22 1443.4 919.2 1426.05 974.91C1408.7 1030.62 1384.84 1078.81 1354.46 1119.47C1324.09 1160.13 1288.3 1191.75 1247.08 1214.34C1205.86 1236.93 1160.96 1248.22 1112.37 1248.22C1063.78 1248.22 1018.66 1236.93 977.01 1214.34C935.36 1191.75 899.35 1160.13 868.98 1119.47C838.61 1078.81 814.97 1030.63 798.05 974.91C781.13 919.2 772.67 858.21 772.67 791.96C772.67 725.71 781.13 664.72 798.05 609.01C814.97 553.3 838.61 505.11 868.98 464.45C899.35 423.79 935.36 391.92 977.01 368.83C1018.66 345.74 1063.78 334.2 1112.37 334.2C1160.96 334.2 1205.86 345.74 1247.08 368.83C1288.29 391.92 1324.09 423.79 1354.46 464.45C1384.83 505.11 1408.69 553.29 1426.05 609.01C1443.4 664.72 1452.08 725.71 1452.08 791.96Z" fill="#7BA9E3"/>
<path fill-rule="evenodd" clip-rule="evenodd" d="M1710.73 885.53H1887.9V654.94L1710.73 885.53ZM1863.15 1251.6V1073.12H1504.89V886.83L1929.59 342.28H2071.59V885.53H2186.23V1073.13H2071.59V1251.61H1863.15V1251.6Z" fill="#7BA9E3"/>
<path fill-rule="evenodd" clip-rule="evenodd" d="M1443.49 1424.31H1481.99C1486.95 1424.31 1491.23 1421.96 1494.82 1417.25C1498.41 1412.54 1500.21 1406.51 1500.21 1399.16C1500.21 1391.81 1498.16 1385.64 1494.05 1381.19C1489.94 1376.74 1485.49 1374.52 1480.7 1374.52H1443.48V1424.31H1443.49ZM1401.39 1519.79V1337.55H1483.53C1492.09 1337.55 1500 1339.35 1507.27 1342.94C1514.54 1346.53 1520.83 1351.24 1526.14 1357.06C1531.44 1362.88 1535.59 1369.46 1538.59 1376.82C1541.58 1384.18 1543.08 1391.62 1543.08 1399.15C1543.08 1404.8 1542.4 1410.23 1541.03 1415.45C1539.66 1420.67 1537.69 1425.59 1535.13 1430.21C1532.56 1434.83 1529.44 1438.98 1525.76 1442.66C1522.08 1446.34 1517.93 1449.46 1513.31 1452.03L1553.35 1519.79H1505.87L1470.96 1461.01H1443.5V1519.79H1401.4H1401.39ZM1238.67 1428.93C1238.67 1435.95 1239.7 1442.75 1241.75 1449.34C1243.8 1455.93 1246.84 1461.79 1250.86 1466.92C1254.88 1472.05 1259.89 1476.16 1265.88 1479.24C1271.87 1482.32 1278.71 1483.86 1286.41 1483.86C1294.11 1483.86 1301.47 1482.24 1307.46 1478.98C1313.45 1475.73 1318.41 1471.49 1322.35 1466.27C1326.29 1461.05 1329.24 1455.15 1331.21 1448.56C1333.18 1441.97 1334.16 1435.26 1334.16 1428.41C1334.16 1421.56 1333.13 1414.59 1331.08 1408C1329.03 1401.41 1325.95 1395.59 1321.84 1390.55C1317.73 1385.5 1312.73 1381.48 1306.83 1378.49C1300.93 1375.5 1294.12 1374 1286.43 1374C1278.74 1374 1271.41 1375.58 1265.51 1378.75C1259.61 1381.92 1254.64 1386.07 1250.62 1391.2C1246.6 1396.33 1243.6 1402.19 1241.64 1408.78C1239.67 1415.37 1238.69 1422.08 1238.69 1428.93H1238.67ZM1286.15 1521.33C1272.63 1521.33 1260.31 1518.68 1249.19 1513.37C1238.07 1508.07 1228.57 1501.09 1220.7 1492.45C1212.83 1483.81 1206.71 1473.93 1202.35 1462.81C1197.99 1451.69 1195.8 1440.22 1195.8 1428.42C1195.8 1416.62 1198.07 1404.89 1202.6 1393.77C1207.13 1382.65 1213.47 1372.85 1221.59 1364.38C1229.72 1355.91 1239.34 1349.15 1250.47 1344.1C1261.59 1339.05 1273.74 1336.53 1286.92 1336.53C1300.1 1336.53 1312.76 1339.18 1323.88 1344.49C1335 1349.79 1344.5 1356.81 1352.37 1365.54C1360.24 1374.27 1366.32 1384.19 1370.59 1395.31C1374.87 1406.43 1377.01 1417.73 1377.01 1429.19C1377.01 1440.65 1374.74 1452.72 1370.21 1463.84C1365.68 1474.96 1359.39 1484.76 1351.35 1493.23C1343.31 1501.7 1333.73 1508.5 1322.6 1513.64C1311.48 1518.77 1299.33 1521.34 1286.15 1521.34V1521.33ZM1076.45 1424.31H1114.95C1119.91 1424.31 1124.19 1421.96 1127.78 1417.25C1131.37 1412.54 1133.17 1406.51 1133.17 1399.16C1133.17 1391.81 1131.12 1385.64 1127.01 1381.19C1122.9 1376.74 1118.45 1374.52 1113.66 1374.52H1076.44V1424.31H1076.45ZM1034.36 1519.79V1337.55H1116.5C1125.06 1337.55 1132.97 1339.35 1140.24 1342.94C1147.51 1346.53 1153.8 1351.24 1159.11 1357.06C1164.41 1362.88 1168.56 1369.46 1171.56 1376.82C1174.55 1384.18 1176.05 1391.62 1176.05 1399.15C1176.05 1404.8 1175.37 1410.23 1174 1415.45C1172.63 1420.67 1170.66 1425.59 1168.1 1430.21C1165.53 1434.83 1162.41 1438.98 1158.73 1442.66C1155.05 1446.34 1150.9 1449.46 1146.28 1452.03L1186.32 1519.79H1138.84L1103.93 1461.01H1076.47V1519.79H1034.37H1034.36ZM904.48 1424.31H942.98C947.94 1424.31 952.22 1421.96 955.81 1417.25C959.4 1412.54 961.2 1406.51 961.2 1399.16C961.2 1391.81 959.15 1385.64 955.04 1381.19C950.93 1376.74 946.48 1374.52 941.69 1374.52H904.47V1424.31H904.48ZM862.39 1519.79V1337.55H944.53C953.09 1337.55 961 1339.35 968.27 1342.94C975.54 1346.53 981.83 1351.24 987.14 1357.06C992.44 1362.88 996.59 1369.46 999.59 1376.82C1002.58 1384.18 1004.08 1391.62 1004.08 1399.15C1004.08 1404.8 1003.4 1410.23 1002.03 1415.45C1000.66 1420.67 998.69 1425.59 996.13 1430.21C993.56 1434.83 990.44 1438.98 986.76 1442.66C983.08 1446.34 978.93 1449.46 974.31 1452.03L1014.35 1519.79H966.87L931.96 1461.01H904.5V1519.79H862.4H862.39ZM836.72 1482.83V1519.79H708.64V1337.55H834.41V1374.51H750.74V1409.93H822.61V1444.07H750.74V1482.83H836.72Z" fill="#7BA9E3"/>
<path fill-rule="evenodd" clip-rule="evenodd" d="M1738.45 195.93V160.48H1766.94V195.93H1738.45ZM1686.47 195.93V160.48H1714.96V195.93H1686.47ZM1623.18 198.1C1613.46 198.1 1603.9 196.54 1594.47 193.42C1585.05 190.3 1577.07 185.77 1570.55 179.83L1582.95 158.51C1589.91 163.29 1596.69 166.99 1603.29 169.6C1609.89 172.21 1616.23 173.51 1622.32 173.51C1626.82 173.51 1630.3 172.71 1632.76 171.12C1635.22 169.53 1636.46 167.21 1636.46 164.16C1636.46 161.11 1634.9 158.69 1631.78 156.87C1628.66 155.06 1623.19 153.14 1615.36 151.11C1607.68 148.94 1601.19 146.83 1595.89 144.8C1590.6 142.77 1586.28 140.52 1582.95 138.06C1579.62 135.6 1577.22 132.77 1575.77 129.58C1574.32 126.39 1573.59 122.62 1573.59 118.27C1573.59 112.47 1574.75 107.18 1577.07 102.39C1579.39 97.6004 1582.58 93.5504 1586.64 90.2104C1590.7 86.8804 1595.52 84.2704 1601.1 82.3804C1606.68 80.5004 1612.74 79.5504 1619.26 79.5504C1627.81 79.5504 1635.83 80.7104 1643.29 83.0304C1650.76 85.3504 1657.97 89.5504 1664.93 95.6404L1651.45 116.52C1644.92 112.03 1639.12 108.76 1634.05 106.73C1628.98 104.7 1624.05 103.69 1619.26 103.69C1615.49 103.69 1612.3 104.45 1609.69 105.97C1607.08 107.49 1605.77 109.92 1605.77 113.26C1605.77 116.6 1607.18 118.84 1610.01 120.44C1612.84 122.04 1618.09 123.78 1625.78 125.66C1633.9 127.83 1640.75 130.01 1646.33 132.18C1651.91 134.35 1656.44 136.78 1659.92 139.47C1663.4 142.15 1665.94 145.23 1667.53 148.71C1669.13 152.19 1669.92 156.32 1669.92 161.11C1669.92 172.42 1665.72 181.41 1657.31 188.08C1648.9 194.75 1637.52 198.08 1623.16 198.08L1623.18 198.1ZM1499.43 168.74C1503.2 168.74 1506.64 167.91 1509.76 166.24C1512.88 164.57 1515.6 162.36 1517.92 159.61C1520.24 156.85 1522.02 153.63 1523.25 149.93C1524.48 146.23 1525.1 142.35 1525.1 138.29C1525.1 134.23 1524.41 130.21 1523.03 126.66C1521.65 123.11 1519.77 120.02 1517.38 117.42C1514.99 114.81 1512.09 112.78 1508.68 111.33C1505.27 109.88 1501.61 109.16 1497.7 109.16C1492.91 109.16 1488.31 110.57 1483.89 113.4C1479.47 116.23 1476.1 120.03 1473.78 124.82V148.31C1476.1 154.11 1479.62 158.97 1484.33 162.88C1489.04 166.79 1494.08 168.75 1499.45 168.75L1499.43 168.74ZM1511.17 198.1C1502.47 198.1 1494.93 196.29 1488.55 192.66C1482.17 189.04 1477.24 183.96 1473.76 177.44V242.25H1438.96V81.7504H1469.19V100.24C1473.4 93.7204 1478.65 88.6404 1484.96 85.0204C1491.27 81.4004 1498.77 79.5804 1507.47 79.5804C1515.15 79.5804 1522.22 81.1004 1528.68 84.1504C1535.13 87.1904 1540.71 91.3604 1545.43 96.6604C1550.14 101.95 1553.84 108.19 1556.52 115.36C1559.2 122.54 1560.54 130.26 1560.54 138.52C1560.54 146.78 1559.31 154.98 1556.84 162.23C1554.38 169.48 1550.97 175.75 1546.62 181.04C1542.27 186.33 1537.05 190.5 1530.96 193.55C1524.87 196.6 1518.27 198.12 1511.17 198.12V198.1ZM1335.22 138.95C1335.22 147.94 1337.61 155.15 1342.4 160.59C1347.18 166.03 1353.28 168.75 1360.67 168.75C1364.29 168.75 1367.63 168.02 1370.67 166.57C1373.72 165.12 1376.36 163.09 1378.61 160.48C1380.86 157.87 1382.63 154.72 1383.94 151.02C1385.24 147.32 1385.9 143.3 1385.9 138.95C1385.9 129.96 1383.51 122.75 1378.72 117.31C1373.94 111.87 1367.92 109.16 1360.67 109.16C1357.05 109.16 1353.67 109.88 1350.56 111.33C1347.44 112.78 1344.76 114.81 1342.51 117.42C1340.26 120.03 1338.49 123.18 1337.18 126.88C1335.88 130.58 1335.22 134.6 1335.22 138.95ZM1360.67 198.1C1350.96 198.1 1342.29 196.51 1334.68 193.32C1327.07 190.13 1320.65 185.82 1315.43 180.38C1310.21 174.94 1306.26 168.64 1303.58 161.46C1300.9 154.28 1299.56 146.78 1299.56 138.95C1299.56 131.12 1300.9 123.62 1303.58 116.44C1306.26 109.26 1310.21 102.95 1315.43 97.5204C1320.65 92.0804 1327.07 87.7304 1334.68 84.4704C1342.29 81.2104 1350.96 79.5804 1360.67 79.5804C1370.38 79.5804 1379.01 81.2104 1386.55 84.4704C1394.09 87.7304 1400.47 92.0804 1405.69 97.5204C1410.91 102.96 1414.9 109.26 1417.65 116.44C1420.41 123.62 1421.78 131.12 1421.78 138.95C1421.78 146.78 1420.44 154.28 1417.76 161.46C1415.08 168.64 1411.13 174.94 1405.91 180.38C1400.69 185.82 1394.27 190.13 1386.66 193.32C1379.05 196.51 1370.38 198.1 1360.67 198.1ZM1171.23 118.94C1171.23 124.88 1172.1 130.65 1173.84 136.23C1175.58 141.81 1178.15 146.78 1181.56 151.13C1184.97 155.48 1189.21 158.96 1194.28 161.57C1199.35 164.18 1205.16 165.48 1211.68 165.48C1218.2 165.48 1224.44 164.1 1229.51 161.35C1234.58 158.6 1238.79 155.01 1242.12 150.59C1245.46 146.17 1247.96 141.16 1249.62 135.58C1251.29 130 1252.12 124.31 1252.12 118.51C1252.12 112.71 1251.25 106.8 1249.51 101.22C1247.77 95.6404 1245.16 90.7104 1241.68 86.4304C1238.2 82.1504 1233.96 78.7504 1228.96 76.2104C1223.96 73.6704 1218.19 72.4004 1211.67 72.4004C1205.15 72.4004 1198.95 73.7404 1193.94 76.4204C1188.94 79.1004 1184.73 82.6204 1181.33 86.9704C1177.92 91.3204 1175.38 96.2904 1173.72 101.87C1172.05 107.45 1171.22 113.14 1171.22 118.94H1171.23ZM1211.47 197.23C1200.02 197.23 1189.58 194.98 1180.15 190.49C1170.72 185.99 1162.68 180.09 1156.01 172.76C1149.34 165.44 1144.16 157.06 1140.46 147.64C1136.76 138.21 1134.91 128.5 1134.91 118.5C1134.91 108.5 1136.83 98.5604 1140.67 89.1404C1144.51 79.7204 1149.88 71.4204 1156.76 64.2404C1163.65 57.0604 1171.8 51.3404 1181.23 47.0604C1190.65 42.7804 1200.95 40.6504 1212.11 40.6504C1223.27 40.6504 1234 42.9004 1243.43 47.3904C1252.86 51.8804 1260.9 57.8304 1267.57 65.2204C1274.24 72.6104 1279.39 81.0204 1283.01 90.4504C1286.64 99.8804 1288.45 109.45 1288.45 119.16C1288.45 128.87 1286.53 139.1 1282.69 148.52C1278.85 157.95 1273.52 166.25 1266.71 173.42C1259.89 180.6 1251.77 186.36 1242.35 190.71C1232.93 195.06 1222.63 197.23 1211.47 197.23Z" fill="#7BA9E3"/>
</g>
<defs>
<clipPath id="clip0_375_8773">
<rect width="2499.64" height="1744.9" fill="white"/>
</clipPath>
</defs>
</svg>
