<svg width="30" height="30" viewBox="0 0 30 30" fill="none" xmlns="http://www.w3.org/2000/svg">
<rect width="30" height="30" rx="10" fill="#1C398E"/>
<g opacity="0.8">
<path d="M12.6114 22.5001C11.1699 22.5001 10 21.5322 10 20.3389V10.5666C10 9.37323 11.1699 8.4054 12.6114 8.4054C14.0528 8.4054 15.2227 9.37323 15.2227 10.5666V20.3389C15.2227 21.5322 14.0528 22.5001 12.6114 22.5001Z" fill="#0B99FF"/>
</g>
<g opacity="0.8">
<path d="M22.1793 14.0803C21.5682 15.3867 19.9335 15.9144 18.5234 15.256L12.6635 12.5178C11.2534 11.8594 10.6058 10.2656 11.2116 8.95925C11.8174 7.65286 13.4574 7.12508 14.8675 7.7835L20.7274 10.5217C22.1375 11.1801 22.7851 12.7739 22.1793 14.0803Z" fill="#3E64FF"/>
</g>
<g opacity="0.8">
<path d="M17.184 17.8097L17.051 17.9427C16.4391 18.5549 16.4391 19.5475 17.051 20.1597C17.6629 20.7719 18.655 20.7719 19.2668 20.1597L19.3998 20.0267C20.0117 19.4145 20.0117 18.4219 19.3998 17.8097C18.7879 17.1975 17.7958 17.1975 17.184 17.8097Z" fill="#0FFFEB"/>
</g>
</svg>
